<svg width="153" height="34" viewBox="0 0 153 34" fill="none" xmlns="http://www.w3.org/2000/svg">
<path fill-rule="evenodd" clip-rule="evenodd" d="M14.7964 0.665387C15.6108 1.01892 16.0947 1.86706 15.9846 2.74806L15.0656 10.1H23.6C24.3761 10.1 25.082 10.5489 25.4112 11.2517C25.7404 11.9544 25.6333 12.7842 25.1365 13.3804L13.1365 27.7804C12.5681 28.4624 11.6181 28.6881 10.8036 28.3346C9.98921 27.9811 9.50534 27.1329 9.61547 26.2519L10.5345 18.9H2.00002C1.22399 18.9 0.518005 18.4511 0.188846 17.7483C-0.140314 17.0455 -0.0332238 16.2158 0.463582 15.6196L12.4636 1.21962C13.032 0.537553 13.982 0.311849 14.7964 0.665387ZM6.27011 14.9H12.8C13.3737 14.9 13.9197 15.1463 14.2994 15.5764C14.679 16.0064 14.8557 16.5788 14.7846 17.1481L14.4307 19.9791L19.3299 14.1H12.8C12.2264 14.1 11.6803 13.8537 11.3007 13.4236C10.921 12.9935 10.7443 12.4212 10.8155 11.8519L11.1693 9.0209L6.27011 14.9Z" fill="#0147FF"/>
<path d="M152.694 9.7019V12.9988H144.069V9.7019H152.694ZM146.053 5.53003H150.413V21.4519C150.413 21.9207 150.459 22.28 150.553 22.53C150.647 22.78 150.788 22.9571 150.975 23.0613C151.173 23.155 151.433 23.2019 151.756 23.2019C151.975 23.2019 152.178 23.1915 152.366 23.1707C152.553 23.1394 152.694 23.1082 152.788 23.0769V26.4988C152.444 26.6342 152.079 26.7384 151.694 26.8113C151.319 26.8842 150.871 26.9207 150.35 26.9207C149.475 26.9207 148.715 26.754 148.069 26.4207C147.433 26.0873 146.939 25.5561 146.584 24.8269C146.23 24.0873 146.053 23.1186 146.053 21.9207V5.53003Z" fill="black"/>
<path d="M128.881 18.7332V17.5925C128.881 16.2696 129.038 15.0977 129.35 14.0769C129.673 13.0561 130.131 12.2019 130.725 11.5144C131.319 10.8165 132.032 10.2904 132.866 9.93628C133.709 9.5717 134.652 9.3894 135.694 9.3894C136.746 9.3894 137.689 9.5717 138.522 9.93628C139.366 10.2904 140.084 10.8165 140.678 11.5144C141.282 12.2019 141.746 13.0561 142.069 14.0769C142.392 15.0977 142.553 16.2696 142.553 17.5925V18.7332C142.553 20.0457 142.392 21.2123 142.069 22.2332C141.746 23.254 141.282 24.1134 140.678 24.8113C140.084 25.5092 139.371 26.0352 138.538 26.3894C137.704 26.7436 136.767 26.9207 135.725 26.9207C134.683 26.9207 133.741 26.7436 132.897 26.3894C132.064 26.0352 131.345 25.5092 130.741 24.8113C130.137 24.1134 129.673 23.254 129.35 22.2332C129.038 21.2123 128.881 20.0457 128.881 18.7332ZM133.256 17.5925V18.7332C133.256 19.5144 133.308 20.1915 133.413 20.7644C133.527 21.3373 133.689 21.8113 133.897 22.1863C134.116 22.5613 134.376 22.8373 134.678 23.0144C134.98 23.1915 135.329 23.28 135.725 23.28C136.121 23.28 136.475 23.1915 136.788 23.0144C137.1 22.8373 137.355 22.5613 137.553 22.1863C137.762 21.8113 137.913 21.3373 138.006 20.7644C138.111 20.1915 138.163 19.5144 138.163 18.7332V17.5925C138.163 16.8321 138.105 16.1654 137.991 15.5925C137.876 15.0092 137.715 14.5352 137.506 14.1707C137.298 13.7957 137.038 13.5144 136.725 13.3269C136.423 13.129 136.079 13.03 135.694 13.03C135.308 13.03 134.965 13.129 134.663 13.3269C134.371 13.5144 134.116 13.7957 133.897 14.1707C133.689 14.5352 133.527 15.0092 133.413 15.5925C133.308 16.1654 133.256 16.8321 133.256 17.5925Z" fill="black"/>
<path d="M117.913 12.9519V33.1082H113.553V9.7019H117.584L117.913 12.9519ZM126.694 17.5769V18.7019C126.694 20.0248 126.579 21.1967 126.35 22.2175C126.121 23.2279 125.777 24.0873 125.319 24.7957C124.871 25.4936 124.308 26.0248 123.631 26.3894C122.954 26.7436 122.163 26.9207 121.256 26.9207C120.413 26.9207 119.683 26.7227 119.069 26.3269C118.465 25.9207 117.954 25.3634 117.538 24.655C117.121 23.9467 116.788 23.1186 116.538 22.1707C116.288 21.2227 116.095 20.2071 115.959 19.1238V17.3738C116.084 16.2175 116.267 15.155 116.506 14.1863C116.746 13.2071 117.074 12.3582 117.491 11.6394C117.918 10.9207 118.433 10.3686 119.038 9.98315C119.652 9.58732 120.381 9.3894 121.225 9.3894C122.142 9.3894 122.939 9.55607 123.616 9.8894C124.303 10.2227 124.871 10.7279 125.319 11.405C125.777 12.0717 126.121 12.9207 126.35 13.9519C126.579 14.9832 126.694 16.1915 126.694 17.5769ZM122.319 18.7019V17.5769C122.319 16.7644 122.272 16.0717 122.178 15.4988C122.095 14.9259 121.959 14.4571 121.772 14.0925C121.584 13.7279 121.34 13.4623 121.038 13.2957C120.736 13.129 120.366 13.0457 119.928 13.0457C119.501 13.0457 119.126 13.129 118.803 13.2957C118.491 13.4623 118.236 13.7071 118.038 14.03C117.84 14.3425 117.689 14.7279 117.584 15.1863C117.48 15.6342 117.423 16.1446 117.413 16.7175V19.78C117.433 20.4571 117.522 21.0561 117.678 21.5769C117.845 22.0977 118.111 22.5144 118.475 22.8269C118.84 23.129 119.334 23.28 119.959 23.28C120.407 23.28 120.777 23.1863 121.069 22.9988C121.371 22.8113 121.616 22.53 121.803 22.155C121.991 21.78 122.121 21.3061 122.194 20.7332C122.277 20.1602 122.319 19.4832 122.319 18.7019Z" fill="black"/>
<path d="M106.1 20.6238C106.1 20.2175 106.064 19.8477 105.991 19.5144C105.918 19.1811 105.762 18.8738 105.522 18.5925C105.293 18.3113 104.954 18.03 104.506 17.7488C104.069 17.4675 103.496 17.1759 102.788 16.8738C101.944 16.5196 101.126 16.1446 100.334 15.7488C99.5428 15.3425 98.8293 14.8738 98.1938 14.3425C97.5584 13.8113 97.0532 13.1863 96.6782 12.4675C96.3136 11.7384 96.1313 10.8842 96.1313 9.90503C96.1313 8.9467 96.3032 8.0769 96.647 7.29565C97.0011 6.5144 97.5011 5.84774 98.147 5.29565C98.7928 4.73315 99.548 4.30086 100.413 3.99878C101.288 3.6967 102.262 3.54565 103.334 3.54565C104.793 3.54565 106.053 3.84774 107.116 4.4519C108.189 5.05607 109.017 5.8842 109.6 6.93628C110.194 7.98836 110.491 9.1967 110.491 10.5613H105.928C105.928 9.91545 105.834 9.34774 105.647 8.85815C105.47 8.35815 105.183 7.96753 104.788 7.68628C104.392 7.40503 103.881 7.2644 103.256 7.2644C102.673 7.2644 102.189 7.3842 101.803 7.62378C101.428 7.85295 101.147 8.17065 100.959 8.5769C100.782 8.97274 100.694 9.42065 100.694 9.92065C100.694 10.2957 100.782 10.6342 100.959 10.9363C101.147 11.2279 101.402 11.4936 101.725 11.7332C102.048 11.9623 102.428 12.1863 102.866 12.405C103.314 12.6238 103.803 12.8373 104.334 13.0457C105.366 13.4519 106.277 13.8998 107.069 14.3894C107.861 14.8686 108.522 15.4102 109.053 16.0144C109.584 16.6082 109.986 17.28 110.256 18.03C110.527 18.78 110.663 19.6342 110.663 20.5925C110.663 21.5404 110.496 22.405 110.163 23.1863C109.84 23.9571 109.366 24.6238 108.741 25.1863C108.116 25.7384 107.361 26.1654 106.475 26.4675C105.6 26.7696 104.621 26.9207 103.538 26.9207C102.486 26.9207 101.491 26.7748 100.553 26.4832C99.6157 26.1811 98.7876 25.7279 98.0688 25.1238C97.3605 24.5092 96.8032 23.7332 96.397 22.7957C95.9907 21.8477 95.7876 20.7279 95.7876 19.4363H100.366C100.366 20.1238 100.433 20.7123 100.569 21.2019C100.704 21.6811 100.913 22.0665 101.194 22.3582C101.475 22.6394 101.819 22.8529 102.225 22.9988C102.642 23.1342 103.116 23.2019 103.647 23.2019C104.251 23.2019 104.73 23.0873 105.084 22.8582C105.449 22.629 105.709 22.3217 105.866 21.9363C106.022 21.5509 106.1 21.1134 106.1 20.6238Z" fill="black"/>
<path d="M89.2251 22.0457C89.2251 21.754 89.1261 21.4936 88.9282 21.2644C88.7303 21.0352 88.4178 20.8009 87.9907 20.5613C87.5636 20.3113 86.9959 20.0352 86.2876 19.7332C85.5168 19.4207 84.8345 19.0977 84.2407 18.7644C83.647 18.4311 83.1418 18.0613 82.7251 17.655C82.3188 17.2488 82.0116 16.7852 81.8032 16.2644C81.5949 15.7436 81.4907 15.1498 81.4907 14.4832C81.4907 13.7644 81.6209 13.1029 81.8813 12.4988C82.1522 11.8842 82.5376 11.3477 83.0376 10.8894C83.5376 10.4207 84.147 10.0561 84.8657 9.79565C85.5949 9.52482 86.4126 9.3894 87.3188 9.3894C88.5897 9.3894 89.6782 9.61336 90.5845 10.0613C91.5011 10.4988 92.2043 11.1134 92.6938 11.905C93.1834 12.6967 93.4282 13.6186 93.4282 14.6707H89.0532C89.0532 14.2957 88.9959 13.9623 88.8813 13.6707C88.7668 13.3686 88.5793 13.1342 88.3188 12.9675C88.0688 12.8009 87.7303 12.7175 87.3032 12.7175C86.9907 12.7175 86.7095 12.7852 86.4595 12.9207C86.2199 13.0561 86.0272 13.2384 85.8813 13.4675C85.7459 13.6863 85.6782 13.9467 85.6782 14.2488C85.6782 14.4779 85.7251 14.6811 85.8188 14.8582C85.923 15.0352 86.0845 15.2071 86.3032 15.3738C86.522 15.5404 86.8136 15.7175 87.1782 15.905C87.5532 16.0821 88.0116 16.28 88.5532 16.4988C89.6782 16.9154 90.6001 17.3634 91.3188 17.8425C92.048 18.3217 92.5897 18.8842 92.9438 19.53C93.298 20.1654 93.4751 20.9519 93.4751 21.8894C93.4751 22.6394 93.3293 23.3217 93.0376 23.9363C92.7563 24.5509 92.3449 25.0821 91.8032 25.53C91.2616 25.9779 90.6105 26.3217 89.8501 26.5613C89.1001 26.8009 88.2616 26.9207 87.3345 26.9207C85.9699 26.9207 84.8188 26.6498 83.8813 26.1082C82.9438 25.5665 82.2355 24.8738 81.7563 24.03C81.2772 23.1759 81.0376 22.2904 81.0376 21.3738H85.1938C85.2147 21.9363 85.3188 22.379 85.5063 22.7019C85.7043 23.0144 85.9699 23.2332 86.3032 23.3582C86.6366 23.4832 87.0063 23.5457 87.4126 23.5457C87.8188 23.5457 88.1522 23.4936 88.4126 23.3894C88.6834 23.2748 88.8866 23.1029 89.022 22.8738C89.1574 22.6342 89.2251 22.3582 89.2251 22.0457Z" fill="#0147FF"/>
<path d="M75.5063 13.4675V26.6082H71.1313V9.7019H75.2563L75.5063 13.4675ZM79.4907 9.5769L79.4282 13.9363C79.2303 13.8946 78.9907 13.8634 78.7095 13.8425C78.4386 13.8217 78.1991 13.8113 77.9907 13.8113C77.5011 13.8113 77.0845 13.8894 76.7407 14.0457C76.397 14.1915 76.1105 14.4154 75.8813 14.7175C75.6626 15.0092 75.4959 15.3738 75.3813 15.8113C75.2668 16.2488 75.1991 16.7436 75.1782 17.2957L74.3501 16.9832C74.3501 15.879 74.4334 14.8686 74.6001 13.9519C74.7772 13.0248 75.0376 12.2227 75.3813 11.5457C75.7251 10.8582 76.1366 10.3269 76.6157 9.9519C77.1053 9.5769 77.6574 9.3894 78.272 9.3894C78.4803 9.3894 78.6991 9.41024 78.9282 9.4519C79.1678 9.48315 79.3553 9.52482 79.4907 9.5769Z" fill="#0147FF"/>
<path d="M63.4907 22.7175V14.905C63.4907 14.3946 63.4282 13.9884 63.3032 13.6863C63.1886 13.3842 63.0116 13.1654 62.772 13.03C62.5428 12.8842 62.2616 12.8113 61.9282 12.8113C61.5532 12.8113 61.2407 12.8894 60.9907 13.0457C60.7407 13.2019 60.5532 13.4259 60.4282 13.7175C60.3136 14.0092 60.2563 14.3582 60.2563 14.7644H55.8657C55.8657 14.0352 56.0063 13.3477 56.2876 12.7019C56.5688 12.0457 56.9803 11.4727 57.522 10.9832C58.0741 10.4832 58.7303 10.0925 59.4907 9.81128C60.2511 9.53003 61.1053 9.3894 62.0532 9.3894C63.1782 9.3894 64.1782 9.58211 65.0532 9.96753C65.9282 10.3425 66.6209 10.9415 67.1313 11.7644C67.6418 12.5873 67.897 13.655 67.897 14.9675V22.4988C67.897 23.4467 67.9438 24.2175 68.0376 24.8113C68.1418 25.405 68.2928 25.9154 68.4907 26.3425V26.6082H64.0845C63.8866 26.1394 63.7355 25.5561 63.6313 24.8582C63.5376 24.1498 63.4907 23.4363 63.4907 22.7175ZM64.022 16.28L64.0376 18.905H62.4282C62.0116 18.905 61.647 18.9727 61.3345 19.1082C61.0324 19.2436 60.7772 19.4363 60.5688 19.6863C60.3605 19.9259 60.2043 20.2071 60.1001 20.53C60.0063 20.8529 59.9595 21.1967 59.9595 21.5613C59.9595 21.9675 60.0168 22.3113 60.1313 22.5925C60.2459 22.8738 60.4178 23.0873 60.647 23.2332C60.8761 23.379 61.147 23.4519 61.4595 23.4519C61.9386 23.4519 62.3553 23.3529 62.7095 23.155C63.0636 22.9571 63.3241 22.7175 63.4907 22.4363C63.6678 22.155 63.7251 21.8946 63.6626 21.655L64.6626 23.3582C64.5376 23.7436 64.3657 24.1446 64.147 24.5613C63.9386 24.9779 63.673 25.3634 63.3501 25.7175C63.0272 26.0717 62.6261 26.3634 62.147 26.5925C61.6782 26.8113 61.1209 26.9207 60.4751 26.9207C59.5688 26.9207 58.7407 26.7123 57.9907 26.2957C57.2407 25.879 56.647 25.2957 56.2095 24.5457C55.7824 23.7957 55.5688 22.905 55.5688 21.8738C55.5688 21.0196 55.7043 20.2488 55.9751 19.5613C56.2563 18.8634 56.673 18.2748 57.2251 17.7957C57.7772 17.3061 58.4751 16.9311 59.3188 16.6707C60.1626 16.4102 61.1522 16.28 62.2876 16.28H64.022Z" fill="#0147FF"/>
<path d="M48.8501 19.03H53.397C53.3345 20.7384 52.9907 22.1811 52.3657 23.3582C51.7407 24.5248 50.8501 25.4102 49.6938 26.0144C48.548 26.6186 47.1626 26.9207 45.5376 26.9207C44.2772 26.9207 43.1574 26.7123 42.1782 26.2957C41.1991 25.8686 40.3657 25.2436 39.6782 24.4207C38.9907 23.5977 38.4699 22.5821 38.1157 21.3738C37.772 20.155 37.6001 18.754 37.6001 17.1707V13.3113C37.6001 11.7279 37.7824 10.3269 38.147 9.10815C38.522 7.8894 39.0532 6.86857 39.7407 6.04565C40.4386 5.21232 41.2772 4.58732 42.2563 4.17065C43.2459 3.74357 44.3605 3.53003 45.6001 3.53003C47.2563 3.53003 48.6418 3.84253 49.7563 4.46753C50.8709 5.09253 51.7303 6.00399 52.3345 7.2019C52.9491 8.3894 53.3188 9.84253 53.4438 11.5613H48.8813C48.8501 10.4779 48.7251 9.62899 48.5063 9.0144C48.298 8.3894 47.9647 7.9519 47.5063 7.7019C47.048 7.44149 46.4126 7.31128 45.6001 7.31128C44.9959 7.31128 44.4751 7.42065 44.0376 7.6394C43.6001 7.84774 43.2407 8.18628 42.9595 8.65503C42.6782 9.12378 42.4699 9.73836 42.3345 10.4988C42.2095 11.2592 42.147 12.1863 42.147 13.28V17.1707C42.147 18.2436 42.2043 19.1602 42.3188 19.9207C42.4334 20.6707 42.6157 21.2852 42.8657 21.7644C43.1157 22.2436 43.4543 22.5925 43.8813 22.8113C44.3188 23.03 44.8709 23.1394 45.5376 23.1394C46.3084 23.1394 46.9282 23.0248 47.397 22.7957C47.8761 22.5665 48.2303 22.155 48.4595 21.5613C48.6886 20.9675 48.8188 20.1238 48.8501 19.03Z" fill="#0147FF"/>
</svg>
